<svg aria-hidden="true" style="position: absolute; width: 0; height: 0; overflow: hidden;" version="1.1" xmlns="http://www.w3.org/2000/svg" xmlns:xlink="http://www.w3.org/1999/xlink">
<defs>
<symbol id="iconskill-css" viewBox="0 0 32 32">
<path fill="#264de4" style="fill: var(--color1, #264de4)" d="M23.838 7.111l-1.428 15.998-6.419 1.78-6.402-1.777-1.427-16.001h15.676z"></path>
<path fill="#2965f1" style="fill: var(--color2, #2965f1)" d="M21.187 22.091l1.22-13.671h-6.407v15.109l5.187-1.438z"></path>
<path fill="#ebebeb" style="fill: var(--color3, #ebebeb)" d="M11.433 14.354l0.176 1.962h4.392v-1.962h-4.567z"></path>
<path fill="#ebebeb" style="fill: var(--color3, #ebebeb)" d="M16 10.382h-4.921l0.178 1.962h4.742v-1.962z"></path>
<path fill="#ebebeb" style="fill: var(--color3, #ebebeb)" d="M16 21.492v-2.042l-0.009 0.002-2.186-0.59-0.14-1.565h-1.97l0.275 3.081 4.020 1.116 0.009-0.003z"></path>
<path fill="#fff" style="fill: var(--color4, #fff)" d="M18.41 16.316l-0.228 2.545-2.189 0.591v2.042l4.023-1.115 0.030-0.332 0.461-5.166 0.048-0.527 0.354-3.972h-4.916v1.962h2.765l-0.179 2.010h-2.587v1.962h2.416z"></path>
</symbol>
<symbol id="iconskill-figma" viewBox="0 0 32 32">
<path fill="#0acf83" style="fill: var(--color5, #0acf83)" d="M13.037 24.889c1.636 0 2.963-1.327 2.963-2.963v-2.963h-2.963c-1.636 0-2.963 1.327-2.963 2.963s1.327 2.963 2.963 2.963z"></path>
<path fill="#a259ff" style="fill: var(--color6, #a259ff)" d="M10.074 16c0-1.636 1.327-2.963 2.963-2.963h2.963v5.926h-2.963c-1.636 0-2.963-1.327-2.963-2.963z"></path>
<path fill="#f24e1e" style="fill: var(--color7, #f24e1e)" d="M10.074 10.074c0-1.636 1.327-2.963 2.963-2.963h2.963v5.926h-2.963c-1.636 0-2.963-1.327-2.963-2.963z"></path>
<path fill="#ff7262" style="fill: var(--color8, #ff7262)" d="M16 7.111h2.963c1.636 0 2.963 1.327 2.963 2.963s-1.327 2.963-2.963 2.963h-2.963v-5.926z"></path>
<path fill="#1abcfe" style="fill: var(--color9, #1abcfe)" d="M21.926 16c0 1.636-1.327 2.963-2.963 2.963s-2.963-1.327-2.963-2.963c0-1.636 1.327-2.963 2.963-2.963s2.963 1.327 2.963 2.963z"></path>
</symbol>
<symbol id="iconskill-git" viewBox="0 0 33 32">
<path fill="#de4c36" style="fill: var(--color10, #de4c36)" d="M25.048 15.208l-7.805-7.762c-0.449-0.447-1.178-0.447-1.628 0l-1.621 1.612 2.056 2.045c0.478-0.161 1.026-0.053 1.407 0.326 0.383 0.381 0.49 0.931 0.325 1.407l1.982 1.971c0.479-0.164 1.033-0.058 1.415 0.323 0.535 0.532 0.535 1.394 0 1.926s-1.402 0.532-1.938 0c-0.402-0.401-0.502-0.988-0.298-1.482l-1.848-1.838-0 4.836c0.134 0.066 0.256 0.153 0.362 0.258 0.535 0.532 0.535 1.394 0 1.927s-1.403 0.532-1.937 0c-0.535-0.533-0.535-1.395 0-1.927 0.128-0.128 0.281-0.229 0.448-0.297v-4.881c-0.168-0.068-0.32-0.169-0.448-0.297-0.405-0.403-0.503-0.994-0.295-1.489l-2.027-2.016-5.352 5.322c-0.45 0.447-0.45 1.173 0 1.62l7.805 7.762c0.449 0.447 1.178 0.447 1.628 0l7.769-7.726c0.45-0.447 0.45-1.173 0-1.62z"></path>
</symbol>
<symbol id="iconskill-github" viewBox="0 0 33 32">
<path d="M16.268 7.33c-4.936 0-8.939 3.98-8.939 8.889 0 3.927 2.561 7.259 6.113 8.435 0.447 0.082 0.611-0.193 0.611-0.428 0-0.212-0.008-0.912-0.012-1.655-2.487 0.538-3.012-1.049-3.012-1.049-0.407-1.027-0.992-1.301-0.992-1.301-0.811-0.552 0.061-0.54 0.061-0.54 0.898 0.063 1.37 0.916 1.37 0.916 0.797 1.359 2.091 0.966 2.601 0.739 0.080-0.575 0.312-0.967 0.568-1.189-1.985-0.225-4.072-0.987-4.072-4.393 0-0.97 0.349-1.763 0.921-2.386-0.093-0.224-0.399-1.128 0.087-2.352 0 0 0.751-0.239 2.459 0.911 0.713-0.197 1.478-0.296 2.237-0.299 0.76 0.003 1.525 0.102 2.239 0.299 1.706-1.15 2.456-0.911 2.456-0.911 0.486 1.224 0.18 2.128 0.088 2.352 0.573 0.623 0.92 1.415 0.92 2.386 0 3.414-2.091 4.166-4.082 4.386 0.321 0.276 0.606 0.817 0.606 1.646 0 1.189-0.010 2.147-0.010 2.439 0 0.236 0.161 0.514 0.614 0.426 3.55-1.177 6.108-4.508 6.108-8.434 0-4.909-4.002-8.889-8.939-8.889z"></path>
<path d="M10.677 19.993c-0.020 0.044-0.090 0.057-0.153 0.027-0.065-0.029-0.101-0.089-0.080-0.134 0.019-0.046 0.089-0.058 0.154-0.028 0.065 0.029 0.102 0.090 0.079 0.134zM11.117 20.383c-0.043 0.039-0.126 0.021-0.183-0.041-0.058-0.062-0.069-0.145-0.026-0.185s0.125-0.021 0.183 0.041c0.058 0.063 0.070 0.145 0.025 0.185l0-0zM11.419 20.882c-0.055 0.038-0.144 0.002-0.2-0.077s-0.055-0.174 0.001-0.212c0.056-0.038 0.144-0.004 0.2 0.075 0.055 0.080 0.055 0.175-0.001 0.214l0-0zM11.929 21.46c-0.049 0.054-0.153 0.039-0.23-0.034-0.078-0.072-0.1-0.173-0.051-0.227s0.155-0.039 0.232 0.034c0.078 0.072 0.101 0.174 0.049 0.227h-0zM12.588 21.656c-0.021 0.070-0.122 0.101-0.223 0.072s-0.167-0.112-0.147-0.182c0.021-0.070 0.122-0.103 0.224-0.071 0.101 0.030 0.167 0.111 0.146 0.182h-0zM13.338 21.738c0.002 0.073-0.083 0.134-0.19 0.135-0.107 0.002-0.193-0.057-0.194-0.129 0-0.074 0.084-0.134 0.191-0.136s0.193 0.057 0.193 0.13zM14.076 21.71c0.013 0.072-0.061 0.145-0.167 0.165-0.104 0.019-0.2-0.025-0.213-0.096-0.013-0.073 0.062-0.147 0.166-0.166 0.106-0.018 0.2 0.025 0.214 0.097z"></path>
</symbol>
<symbol id="iconskill-html5" viewBox="0 0 32 32">
<path fill="#e44d26" style="fill: var(--color11, #e44d26)" d="M9.587 23.117l-1.426-16.006h15.678l-1.426 15.997-6.426 1.78z"></path>
<path fill="#f16529" style="fill: var(--color12, #f16529)" d="M16 23.528v-15.103h6.408l-1.223 13.655z"></path>
<path fill="#ebebeb" style="fill: var(--color3, #ebebeb)" d="M11.074 10.382h4.926v1.962h-2.774l0.181 2.009h2.593v1.958h-4.39l-0.536-5.929zM11.696 17.296h1.97l0.138 1.569 2.195 0.588v2.048l-4.027-1.124z"></path>
<path fill="#fff" style="fill: var(--color4, #fff)" d="M20.909 10.382h-4.918v1.962h4.736l0.181-1.962zM20.55 14.354h-4.559v1.962h2.42l-0.229 2.55-2.191 0.588v2.040l4.019-1.115z"></path>
</symbol>
<symbol id="iconskill-javascript" viewBox="0 0 33 32">
<path fill="#f7df1e" style="fill: var(--color13, #f7df1e)" d="M25.386 7.111h-17.877v17.778h17.877v-17.778z"></path>
<path fill="#000" style="fill: var(--color14, #000)" d="M19.517 21c0.36 0.585 0.829 1.014 1.657 1.014 0.696 0 1.141-0.346 1.141-0.824 0-0.573-0.457-0.776-1.223-1.109l-0.42-0.179c-1.212-0.514-2.018-1.157-2.018-2.517 0-1.253 0.96-2.207 2.46-2.207 1.068 0 1.836 0.37 2.389 1.338l-1.308 0.835c-0.288-0.514-0.599-0.716-1.081-0.716-0.492 0-0.804 0.31-0.804 0.716 0 0.501 0.312 0.704 1.033 1.014l0.42 0.179c1.427 0.609 2.233 1.229 2.233 2.624 0 1.504-1.188 2.328-2.784 2.328-1.56 0-2.568-0.739-3.061-1.708l1.365-0.789zM13.583 21.145c0.264 0.466 0.504 0.859 1.081 0.859 0.552 0 0.9-0.215 0.9-1.050v-5.68h1.68v5.703c0 1.73-1.020 2.517-2.508 2.517-1.345 0-2.124-0.692-2.52-1.526l1.367-0.823z"></path>
</symbol>
<symbol id="iconskill-mongodb" viewBox="0 0 33 32">
<path fill="#599636" style="fill: var(--color15, #599636)" d="M16.356 7.16l0.477 0.891c0.107 0.164 0.223 0.31 0.36 0.446 0.401 0.394 0.775 0.815 1.119 1.259 0.808 1.056 1.354 2.228 1.743 3.495 0.233 0.774 0.36 1.569 0.37 2.372 0.039 2.402-0.789 4.464-2.458 6.177-0.272 0.272-0.565 0.521-0.877 0.745-0.165 0-0.244-0.126-0.312-0.242-0.124-0.215-0.207-0.452-0.244-0.697-0.059-0.291-0.097-0.581-0.078-0.881v-0.136c-0.013-0.029-0.159-13.361-0.101-13.43z"></path>
<path fill="#6cac48" style="fill: var(--color16, #6cac48)" d="M16.356 7.13c-0.020-0.039-0.039-0.009-0.059 0.009 0.009 0.194-0.059 0.368-0.165 0.533-0.117 0.164-0.273 0.29-0.428 0.426-0.866 0.745-1.547 1.646-2.093 2.653-0.726 1.355-1.1 2.808-1.207 4.338-0.049 0.552 0.175 2.498 0.35 3.060 0.477 1.491 1.334 2.74 2.444 3.825 0.273 0.261 0.564 0.503 0.866 0.736 0.088 0 0.097-0.078 0.117-0.136 0.038-0.124 0.068-0.25 0.088-0.378l0.196-1.452-0.108-13.615z"></path>
<path fill="#c2bfbf" style="fill: var(--color17, #c2bfbf)" d="M16.833 23.135c0.020-0.222 0.127-0.407 0.244-0.59-0.117-0.048-0.204-0.144-0.273-0.252-0.059-0.102-0.107-0.208-0.145-0.319-0.136-0.407-0.165-0.833-0.204-1.249v-0.252c-0.049 0.039-0.059 0.368-0.059 0.417-0.028 0.439-0.087 0.876-0.175 1.307-0.029 0.174-0.049 0.348-0.156 0.503 0 0.019 0 0.039 0.009 0.068 0.175 0.513 0.223 1.036 0.253 1.569v0.194c0 0.232-0.009 0.183 0.184 0.261 0.078 0.029 0.165 0.039 0.244 0.097 0.059 0 0.068-0.048 0.068-0.087l-0.029-0.319v-0.891c-0.009-0.156 0.020-0.31 0.039-0.456l0.001-0.001z"></path>
</symbol>
<symbol id="iconskill-npm" viewBox="0 0 32 32">
<path fill="#c00" style="fill: var(--color18, #c00)" d="M7.111 7.111h17.778v17.778h-17.778v-17.778z"></path>
<path fill="#fff" style="fill: var(--color4, #fff)" d="M15.94 9.020h-6.919v13.958h6.918v-10.438h3.52v10.438h3.52v-13.958h-7.039z"></path>
</symbol>
<symbol id="iconskill-postman" viewBox="0 0 33 32">
<path fill="#ff6c37" style="fill: var(--color19, #ff6c37)" d="M23.237 10.567c-1.081-1.392-2.552-2.433-4.228-2.993s-3.481-0.613-5.187-0.153-3.237 1.414-4.398 2.739c-1.161 1.326-1.902 2.964-2.127 4.708s0.075 3.515 0.862 5.089 2.026 2.881 3.56 3.755c1.534 0.874 3.294 1.276 5.058 1.155s3.452-0.759 4.851-1.834c3.905-3.001 4.626-8.582 1.609-12.467h0z"></path>
<path fill="#fff" style="fill: var(--color4, #fff)" d="M19.178 12.775l-3.769 3.778-1.065-1.089c3.709-3.689 4.082-3.356 4.834-2.689h-0z"></path>
<path fill="#ff6c37" style="fill: var(--color19, #ff6c37)" d="M15.409 16.656c-0.033-0.001-0.065-0.014-0.089-0.037l-1.073-1.067c-0.024-0.025-0.038-0.058-0.038-0.093s0.014-0.068 0.038-0.093c3.657-3.637 4.156-3.467 5.020-2.689 0.014 0.011 0.026 0.026 0.034 0.043s0.012 0.035 0.011 0.053c0.006 0.036-0.008 0.073-0.037 0.096l-3.769 3.748c-0.026 0.024-0.061 0.037-0.097 0.037v-0zM14.53 15.463l0.879 0.874 3.575-3.556c-0.123-0.154-0.3-0.257-0.495-0.29s-0.396 0.007-0.563 0.112c-0.648 0.289-1.691 1.17-3.397 2.859z"></path>
<path fill="#fff" style="fill: var(--color4, #fff)" d="M16.489 17.597l-1.028-1.044 3.769-3.704c1.013 0.985-0.492 2.63-2.741 4.748v0z"></path>
<path fill="#ff6c37" style="fill: var(--color19, #ff6c37)" d="M16.489 17.73c-0.033-0.003-0.064-0.016-0.089-0.037l-1.050-1.022c-0.016-0.038-0.016-0.081 0-0.119-0.011-0.031-0.011-0.065 0-0.096l3.769-3.748c0.026-0.024 0.061-0.038 0.097-0.038s0.071 0.014 0.097 0.038c0.122 0.112 0.218 0.248 0.283 0.4s0.095 0.316 0.090 0.481c0 1-1.147 2.259-3.099 4.096-0.026 0.026-0.060 0.041-0.097 0.044h0zM15.654 16.553l0.842 0.837c1.49-1.4 2.913-2.844 2.92-3.822 0.008-0.207-0.061-0.41-0.194-0.57l-3.568 3.556z"></path>
<path fill="#fff" style="fill: var(--color4, #fff)" d="M14.373 15.486l0.745 0.741c0.005 0.004 0.009 0.009 0.011 0.015s0.004 0.012 0.004 0.018c0 0.006-0.001 0.012-0.004 0.018s-0.006 0.011-0.011 0.015l-1.572 0.333c-0.032 0.007-0.065 0.003-0.094-0.011s-0.054-0.036-0.069-0.065c-0.015-0.029-0.021-0.061-0.015-0.093s0.021-0.061 0.044-0.083l0.916-0.904c0 0 0.030 0 0.045 0.015z"></path>
<path fill="#ff6c37" style="fill: var(--color19, #ff6c37)" d="M13.509 16.775c-0.050-0.001-0.098-0.014-0.141-0.039s-0.079-0.060-0.104-0.102c-0.029-0.054-0.039-0.115-0.030-0.175s0.038-0.116 0.082-0.158l0.909-0.911c0.033-0.029 0.075-0.045 0.119-0.045s0.086 0.016 0.119 0.045l0.745 0.741c0.044 0.042 0.061 0.105 0.045 0.163s-0.066 0.105-0.127 0.119l-1.572 0.333-0.045 0.029zM14.344 15.649l-0.842 0.837 1.393-0.296-0.551-0.541z"></path>
<path fill="#fff" style="fill: var(--color4, #fff)" d="M21.182 10.693c-0.539-0.517-1.386-0.539-1.951-0.051s-0.662 1.326-0.222 1.929c0.44 0.603 1.27 0.772 1.913 0.389l-1.013-1.008 1.274-1.259z"></path>
<path fill="#ff6c37" style="fill: var(--color19, #ff6c37)" d="M20.176 13.3c-0.31-0.004-0.611-0.098-0.868-0.272s-0.455-0.418-0.573-0.703c-0.117-0.285-0.148-0.598-0.088-0.9s0.207-0.58 0.424-0.8c0.298-0.291 0.699-0.454 1.117-0.454s0.819 0.163 1.117 0.454c0.029 0.024 0.045 0.059 0.045 0.096-0 0.018-0.004 0.036-0.012 0.053s-0.019 0.031-0.033 0.043l-1.207 1.133 0.916 0.896c0.015 0.014 0.026 0.032 0.032 0.051s0.008 0.040 0.005 0.060c-0.002 0.019-0.009 0.038-0.019 0.055s-0.024 0.031-0.041 0.042c-0.246 0.153-0.529 0.237-0.819 0.244l0.003-0.001zM20.176 10.426c-0.531 0.003-1.006 0.32-1.205 0.806s-0.091 1.044 0.281 1.417c0.185 0.185 0.422 0.31 0.68 0.359s0.524 0.019 0.765-0.085l-0.879-0.874c-0.014-0.011-0.025-0.025-0.033-0.041s-0.012-0.034-0.012-0.051 0.004-0.035 0.012-0.051c0.008-0.016 0.019-0.030 0.033-0.041l1.162-1.163c-0.231-0.176-0.513-0.272-0.804-0.274v0z"></path>
<path fill="#fff" style="fill: var(--color4, #fff)" d="M21.204 10.715l-1.274 1.259 1.013 1.008c0.102-0.058 0.197-0.128 0.283-0.207 0.266-0.279 0.412-0.65 0.407-1.034s-0.158-0.752-0.43-1.025z"></path>
<path fill="#ff6c37" style="fill: var(--color19, #ff6c37)" d="M20.921 13.093c-0.017 0.001-0.034-0.002-0.049-0.008s-0.029-0.016-0.040-0.029l-1.013-1.008c-0.014-0.011-0.025-0.025-0.033-0.041s-0.012-0.034-0.012-0.051c0-0.018 0.004-0.035 0.012-0.051s0.019-0.030 0.033-0.041l1.266-1.237c0.012-0.018 0.029-0.033 0.048-0.044s0.041-0.016 0.063-0.016c0.022 0 0.044 0.005 0.063 0.016s0.036 0.025 0.048 0.044c0.149 0.145 0.267 0.318 0.347 0.508s0.122 0.396 0.122 0.603c0 0.207-0.042 0.412-0.122 0.603s-0.199 0.364-0.347 0.508c-0.088 0.092-0.188 0.172-0.298 0.237-0.028 0.014-0.060 0.017-0.089 0.008h0zM20.101 11.953l0.842 0.837c0.058-0.040 0.113-0.085 0.164-0.133 0.247-0.245 0.387-0.578 0.387-0.926 0.001-0.311-0.113-0.611-0.32-0.844l-1.073 1.067z"></path>
<path fill="#fff" style="fill: var(--color4, #fff)" d="M19.334 12.93c-0.101-0.094-0.234-0.147-0.372-0.147s-0.272 0.052-0.372 0.147l-3.374 3.348 0.559 0.563 3.568-3.111c0.054-0.052 0.098-0.114 0.127-0.183s0.044-0.143 0.043-0.218c-0.001-0.075-0.017-0.149-0.047-0.217s-0.075-0.13-0.13-0.181v0z"></path>
<path fill="#ff6c37" style="fill: var(--color19, #ff6c37)" d="M15.744 16.975c-0.033-0.001-0.065-0.014-0.089-0.037l-0.566-0.563c-0.024-0.025-0.038-0.058-0.038-0.093s0.014-0.068 0.038-0.093l3.374-3.341c0.097-0.097 0.221-0.162 0.356-0.187s0.274-0.010 0.401 0.044 0.233 0.145 0.306 0.26c0.074 0.115 0.111 0.25 0.106 0.387-0.004 0.093-0.026 0.184-0.066 0.268s-0.096 0.159-0.165 0.221l-3.568 3.111c-0.026 0.018-0.058 0.026-0.089 0.022v0zM15.349 16.278l0.372 0.378 3.501-3.030c0.087-0.075 0.138-0.182 0.142-0.296s-0.042-0.226-0.127-0.304c-0.078-0.077-0.184-0.121-0.294-0.121s-0.216 0.043-0.294 0.121l-3.3 3.252z"></path>
<path fill="#fff" style="fill: var(--color4, #fff)" d="M12.601 20.093c-0.009 0.013-0.015 0.028-0.015 0.044s0.005 0.032 0.015 0.044l0.149 0.644c0.006 0.038 0 0.077-0.016 0.111s-0.043 0.064-0.076 0.083c-0.033 0.019-0.072 0.028-0.11 0.024s-0.074-0.020-0.103-0.045l-1.020-0.978 3.181-3.188h1.103l0.745 0.741c-1.162 1.010-2.458 1.858-3.851 2.519z"></path>
<path fill="#ff6c37" style="fill: var(--color19, #ff6c37)" d="M12.534 21.182c-0.084-0.002-0.168-0.036-0.223-0.096l-0.976-0.97c-0.014-0.011-0.025-0.025-0.033-0.041s-0.012-0.034-0.012-0.051c0-0.018 0.004-0.035 0.012-0.051s0.019-0.030 0.033-0.041l3.203-3.192c0.018-0.019 0.041-0.032 0.067-0.037h1.11c0.029-0.010 0.060-0.010 0.089 0l0.745 0.741c0.014 0.013 0.025 0.029 0.031 0.047s0.008 0.037 0.006 0.056c0 0.018-0.003 0.037-0.011 0.053s-0.019 0.032-0.034 0.043l-0.060 0.052c-1.167 0.967-2.45 1.786-3.821 2.437l0.142 0.6c0.011 0.046 0.011 0.094 0.001 0.141s-0.031 0.090-0.060 0.128-0.067 0.068-0.109 0.090c-0.043 0.021-0.090 0.033-0.137 0.034l0.037 0.059zM11.625 20.019l0.879 0.881c0.008 0.007 0.019 0.011 0.030 0.011s0.022-0.004 0.030-0.011c0.005-0.008 0.008-0.017 0.008-0.026s-0.003-0.018-0.008-0.026l-0.149-0.644c-0.012-0.046-0.007-0.095 0.013-0.138s0.055-0.078 0.098-0.099c1.334-0.642 2.585-1.443 3.724-2.385l-0.611-0.608h-0.998l-3.016 3.045z"></path>
<path fill="#fff" style="fill: var(--color4, #fff)" d="M10.656 20.782l0.745-0.741 1.147 1.141-1.825-0.126c-0.031-0.002-0.061-0.015-0.085-0.035s-0.041-0.047-0.048-0.078c-0.007-0.030-0.005-0.062 0.007-0.091s0.033-0.053 0.059-0.070l-0-0z"></path>
<path fill="#ff6c37" style="fill: var(--color19, #ff6c37)" d="M12.571 21.293l-1.818-0.126c-0.108-0.010-0.201-0.083-0.239-0.181s-0.015-0.214 0.060-0.293l0.745-0.741c0.025-0.024 0.058-0.037 0.093-0.037s0.068 0.013 0.093 0.037l1.14 1.133c0.016 0.021 0.024 0.047 0.024 0.074s-0.008 0.052-0.024 0.074c-0.017 0.028-0.044 0.049-0.075 0.059v0zM10.753 20.878l1.49 0.096-0.819-0.763-0.67 0.667z"></path>
<path fill="#fff" style="fill: var(--color4, #fff)" d="M15.811 16.923l-1.505 0.23 0.871-0.859 0.633 0.629z"></path>
<path fill="#ff6c37" style="fill: var(--color19, #ff6c37)" d="M14.306 17.293c-0.025 0.001-0.050-0.006-0.071-0.019s-0.038-0.032-0.048-0.055c-0.016-0.021-0.024-0.047-0.024-0.074s0.009-0.053 0.024-0.074l0.864-0.867c0.026-0.024 0.061-0.038 0.097-0.038s0.071 0.014 0.097 0.038l0.633 0.63c0.013 0.020 0.019 0.043 0.019 0.067s-0.007 0.047-0.019 0.067c-0.006 0.024-0.019 0.046-0.038 0.064s-0.041 0.029-0.066 0.033l-1.49 0.23h0.022zM15.178 16.486l-0.484 0.481 0.834-0.126-0.35-0.356z"></path>
<path fill="#fff" style="fill: var(--color4, #fff)" d="M15.811 16.923l-1.050 0.133c-0.028 0.006-0.058 0.003-0.084-0.008s-0.048-0.031-0.062-0.056c-0.014-0.025-0.020-0.054-0.016-0.082s0.016-0.055 0.036-0.076l0.544-0.541 0.633 0.63z"></path>
<path fill="#ff6c37" style="fill: var(--color19, #ff6c37)" d="M14.731 17.197c-0.049-0-0.096-0.014-0.138-0.038s-0.076-0.060-0.1-0.102c-0.028-0.051-0.040-0.109-0.031-0.167s0.035-0.111 0.076-0.152l0.544-0.541c0.026-0.024 0.061-0.038 0.097-0.038s0.071 0.014 0.097 0.038l0.633 0.63c0.019 0.018 0.032 0.041 0.038 0.066s0.005 0.051-0.004 0.076c-0.009 0.024-0.024 0.046-0.045 0.061s-0.045 0.025-0.071 0.027l-1.095 0.141zM14.731 16.923l0.79-0.096-0.35-0.348-0.447 0.444h0.007zM21.211 11.567c-0.014-0.023-0.036-0.041-0.062-0.049s-0.054-0.007-0.079 0.005c-0.012 0.006-0.023 0.015-0.032 0.025s-0.016 0.023-0.020 0.036c-0.008 0.027-0.006 0.055 0.007 0.080 0.052 0.109 0.038 0.238-0.037 0.333-0.009 0.009-0.017 0.020-0.021 0.032s-0.007 0.025-0.007 0.038c0 0.026 0.010 0.051 0.028 0.070 0.019 0.008 0.040 0.008 0.059 0 0.017 0.004 0.036 0.004 0.053-0.001s0.032-0.015 0.044-0.028c0.061-0.075 0.1-0.165 0.112-0.261s-0.004-0.193-0.045-0.28v0z"></path>
</symbol>
<symbol id="iconskill-prettier" viewBox="0 0 32 32">
<path fill="#56b3b4" style="fill: var(--color20, #56b3b4)" d="M20.233 10.497h0.847c0.237 0 0.423 0.186 0.423 0.423s-0.186 0.423-0.423 0.423h-0.847c-0.237 0-0.423-0.186-0.423-0.423s0.186-0.423 0.423-0.423z"></path>
<path fill="#ea5e5e" style="fill: var(--color21, #ea5e5e)" d="M7.534 24.042h4.233c0.237 0 0.423 0.186 0.423 0.423s-0.186 0.423-0.423 0.423h-4.233c-0.237 0-0.423-0.186-0.423-0.423s0.186-0.423 0.423-0.423z"></path>
<path fill="#bf85bf" style="fill: var(--color22, #bf85bf)" d="M17.693 17.27h2.54c0.237 0 0.423 0.186 0.423 0.423s-0.186 0.423-0.423 0.423h-2.54c-0.237 0-0.423-0.186-0.423-0.423s0.186-0.423 0.423-0.423z"></path>
<path fill="#ea5e5e" style="fill: var(--color21, #ea5e5e)" d="M12.614 17.27h3.386c0.237 0 0.423 0.186 0.423 0.423s-0.186 0.423-0.423 0.423h-3.386c-0.237 0-0.423-0.186-0.423-0.423s0.186-0.423 0.423-0.423z"></path>
<path fill="#56b3b4" style="fill: var(--color20, #56b3b4)" d="M7.534 17.27h3.386c0.237 0 0.423 0.186 0.423 0.423s-0.186 0.423-0.423 0.423h-3.386c-0.237 0-0.423-0.186-0.423-0.423s0.186-0.423 0.423-0.423z"></path>
<path fill="#bf85bf" style="fill: var(--color22, #bf85bf)" d="M7.534 20.656h4.233c0.237 0 0.423 0.186 0.423 0.423s-0.186 0.423-0.423 0.423h-4.233c-0.237 0-0.423-0.186-0.423-0.423s0.186-0.423 0.423-0.423z"></path>
<path fill="#bf85bf" style="fill: var(--color22, #bf85bf)" d="M7.534 13.884h4.233c0.237 0 0.423 0.186 0.423 0.423s-0.186 0.423-0.423 0.423h-4.233c-0.237 0-0.423-0.186-0.423-0.423s0.186-0.423 0.423-0.423z"></path>
<path fill="#f7ba3e" style="fill: var(--color23, #f7ba3e)" d="M11.767 8.804h8.466c0.237 0 0.423 0.186 0.423 0.423s-0.186 0.423-0.423 0.423h-8.466c-0.237 0-0.423-0.186-0.423-0.423s0.186-0.423 0.423-0.423z"></path>
<path fill="#ea5e5e" style="fill: var(--color21, #ea5e5e)" d="M7.534 8.804h2.54c0.237 0 0.423 0.186 0.423 0.423s-0.186 0.423-0.423 0.423h-2.54c-0.237 0-0.423-0.186-0.423-0.423s0.186-0.423 0.423-0.423z"></path>
<path fill="#f7ba3e" style="fill: var(--color23, #f7ba3e)" d="M10.921 22.349h0.847c0.237 0 0.423 0.186 0.423 0.423s-0.186 0.423-0.423 0.423h-0.847c-0.237 0-0.423-0.186-0.423-0.423s0.186-0.423 0.423-0.423z"></path>
<path fill="#56b3b4" style="fill: var(--color20, #56b3b4)" d="M10.921 12.191h0.847c0.237 0 0.423 0.186 0.423 0.423s-0.186 0.423-0.423 0.423h-0.847c-0.237 0-0.423-0.186-0.423-0.423s0.186-0.423 0.423-0.423z"></path>
<path fill="#56b3b4" style="fill: var(--color20, #56b3b4)" d="M7.534 22.349h1.693c0.237 0 0.423 0.186 0.423 0.423s-0.186 0.423-0.423 0.423h-1.693c-0.237 0-0.423-0.186-0.423-0.423s0.186-0.423 0.423-0.423z"></path>
<path fill="#f7ba3e" style="fill: var(--color23, #f7ba3e)" d="M7.534 12.191h1.693c0.237 0 0.423 0.186 0.423 0.423s-0.186 0.423-0.423 0.423h-1.693c-0.237 0-0.423-0.186-0.423-0.423s0.186-0.423 0.423-0.423z"></path>
<path fill="#d0d4d8" style="fill: var(--color24, #d0d4d8)" opacity="0.5" d="M18.54 22.349h0.846c0.237 0 0.423 0.186 0.423 0.423s-0.186 0.423-0.423 0.423h-0.846c-0.237 0-0.423-0.186-0.423-0.423s0.186-0.423 0.423-0.423z"></path>
<path fill="#d0d4d8" style="fill: var(--color24, #d0d4d8)" opacity="0.5" d="M13.46 22.349h3.386c0.237 0 0.423 0.186 0.423 0.423s-0.186 0.423-0.423 0.423h-3.386c-0.237 0-0.423-0.186-0.423-0.423s0.186-0.423 0.423-0.423z"></path>
<path fill="#d0d4d8" style="fill: var(--color24, #d0d4d8)" opacity="0.5" d="M21.079 22.349h3.386c0.237 0 0.423 0.186 0.423 0.423s-0.186 0.423-0.423 0.423h-3.386c-0.237 0-0.423-0.186-0.423-0.423s0.186-0.423 0.423-0.423z"></path>
<path fill="#56b3b4" style="fill: var(--color20, #56b3b4)" d="M14.307 15.577h6.772c0.237 0 0.423 0.186 0.423 0.423s-0.186 0.423-0.423 0.423h-6.773c-0.237 0-0.423-0.186-0.423-0.423s0.186-0.423 0.423-0.423z"></path>
<path fill="#f7ba3e" style="fill: var(--color23, #f7ba3e)" d="M10.074 15.577h2.54c0.237 0 0.423 0.186 0.423 0.423s-0.186 0.423-0.423 0.423h-2.54c-0.237 0-0.423-0.186-0.423-0.423s0.186-0.423 0.423-0.423z"></path>
<path fill="#ea5e5e" style="fill: var(--color21, #ea5e5e)" d="M7.534 15.577h0.847c0.237 0 0.423 0.186 0.423 0.423s-0.186 0.423-0.423 0.423h-0.847c-0.237 0-0.423-0.186-0.423-0.423s0.186-0.423 0.423-0.423z"></path>
<path fill="#bf85bf" style="fill: var(--color22, #bf85bf)" d="M15.153 10.497h3.386c0.237 0 0.423 0.186 0.423 0.423s-0.186 0.423-0.423 0.423h-3.386c-0.237 0-0.423-0.186-0.423-0.423s0.186-0.423 0.423-0.423z"></path>
<path fill="#56b3b4" style="fill: var(--color20, #56b3b4)" d="M7.534 10.497h5.926c0.237 0 0.423 0.186 0.423 0.423s-0.186 0.423-0.423 0.423h-5.926c-0.237 0-0.423-0.186-0.423-0.423s0.186-0.423 0.423-0.423z"></path>
<path fill="#f7ba3e" style="fill: var(--color23, #f7ba3e)" d="M10.074 18.963h7.619c0.237 0 0.423 0.186 0.423 0.423s-0.186 0.423-0.423 0.423h-7.619c-0.237 0-0.423-0.186-0.423-0.423s0.186-0.423 0.423-0.423z"></path>
<path fill="#bf85bf" style="fill: var(--color22, #bf85bf)" d="M7.534 18.963h0.847c0.237 0 0.423 0.186 0.423 0.423s-0.186 0.423-0.423 0.423h-0.847c-0.237 0-0.423-0.186-0.423-0.423s0.186-0.423 0.423-0.423z"></path>
<path fill="#ea5e5e" style="fill: var(--color21, #ea5e5e)" d="M17.693 12.191h4.233c0.237 0 0.423 0.186 0.423 0.423s-0.186 0.423-0.423 0.423h-4.233c-0.237 0-0.423-0.186-0.423-0.423s0.186-0.423 0.423-0.423z"></path>
<path fill="#f7ba3e" style="fill: var(--color23, #f7ba3e)" d="M17.693 13.884h4.233c0.237 0 0.423 0.186 0.423 0.423s-0.186 0.423-0.423 0.423h-4.233c-0.237 0-0.423-0.186-0.423-0.423s0.186-0.423 0.423-0.423z"></path>
<path fill="#56b3b4" style="fill: var(--color20, #56b3b4)" d="M7.534 7.111h10.159c0.237 0 0.423 0.186 0.423 0.423s-0.186 0.423-0.423 0.423h-10.159c-0.237 0-0.423-0.186-0.423-0.423s0.186-0.423 0.423-0.423z"></path>
<path fill="#d0d4d8" style="fill: var(--color24, #d0d4d8)" opacity="0.5" d="M19.386 7.111h5.079c0.237 0 0.423 0.186 0.423 0.423s-0.186 0.423-0.423 0.423h-5.079c-0.237 0-0.423-0.186-0.423-0.423s0.186-0.423 0.423-0.423z"></path>
<path fill="#d0d4d8" style="fill: var(--color24, #d0d4d8)" opacity="0.5" d="M19.386 18.963h1.693c0.237 0 0.423 0.186 0.423 0.423s-0.186 0.423-0.423 0.423h-1.693c-0.237 0-0.423-0.186-0.423-0.423s0.186-0.423 0.423-0.423z"></path>
<path fill="#d0d4d8" style="fill: var(--color24, #d0d4d8)" opacity="0.5" d="M22.773 18.963h1.693c0.237 0 0.423 0.186 0.423 0.423s-0.186 0.423-0.423 0.423h-1.693c-0.237 0-0.423-0.186-0.423-0.423s0.186-0.423 0.423-0.423z"></path>
<path fill="#d0d4d8" style="fill: var(--color24, #d0d4d8)" opacity="0.5" d="M21.926 17.27h2.54c0.237 0 0.423 0.186 0.423 0.423s-0.186 0.423-0.423 0.423h-2.54c-0.237 0-0.423-0.186-0.423-0.423s0.186-0.423 0.423-0.423z"></path>
<path fill="#d0d4d8" style="fill: var(--color24, #d0d4d8)" opacity="0.5" d="M21.926 8.804h2.54c0.237 0 0.423 0.186 0.423 0.423s-0.186 0.423-0.423 0.423h-2.54c-0.237 0-0.423-0.186-0.423-0.423s0.186-0.423 0.423-0.423z"></path>
<path fill="#d0d4d8" style="fill: var(--color24, #d0d4d8)" opacity="0.5" d="M22.773 15.577h1.693c0.237 0 0.423 0.186 0.423 0.423s-0.186 0.423-0.423 0.423h-1.693c-0.237 0-0.423-0.186-0.423-0.423s0.186-0.423 0.423-0.423z"></path>
<path fill="#d0d4d8" style="fill: var(--color24, #d0d4d8)" opacity="0.5" d="M22.773 10.497h1.693c0.237 0 0.423 0.186 0.423 0.423s-0.186 0.423-0.423 0.423h-1.693c-0.237 0-0.423-0.186-0.423-0.423s0.186-0.423 0.423-0.423z"></path>
<path fill="#d0d4d8" style="fill: var(--color24, #d0d4d8)" opacity="0.5" d="M23.619 12.191h0.847c0.237 0 0.423 0.186 0.423 0.423s-0.186 0.423-0.423 0.423h-0.847c-0.237 0-0.423-0.186-0.423-0.423s0.186-0.423 0.423-0.423z"></path>
<path fill="#d0d4d8" style="fill: var(--color24, #d0d4d8)" opacity="0.5" d="M23.619 13.884h0.847c0.237 0 0.423 0.186 0.423 0.423s-0.186 0.423-0.423 0.423h-0.847c-0.237 0-0.423-0.186-0.423-0.423s0.186-0.423 0.423-0.423z"></path>
<path fill="#d0d4d8" style="fill: var(--color24, #d0d4d8)" opacity="0.5" d="M16.847 20.656h7.619c0.237 0 0.423 0.186 0.423 0.423s-0.186 0.423-0.423 0.423h-7.619c-0.237 0-0.423-0.186-0.423-0.423s0.186-0.423 0.423-0.423z"></path>
<path fill="#d0d4d8" style="fill: var(--color24, #d0d4d8)" opacity="0.5" d="M13.46 20.656h1.693c0.237 0 0.423 0.186 0.423 0.423s-0.186 0.423-0.423 0.423h-1.693c-0.237 0-0.423-0.186-0.423-0.423s0.186-0.423 0.423-0.423z"></path>
<path fill="#d0d4d8" style="fill: var(--color24, #d0d4d8)" opacity="0.5" d="M20.233 24.042h4.233c0.237 0 0.423 0.186 0.423 0.423s-0.186 0.423-0.423 0.423h-4.233c-0.237 0-0.423-0.186-0.423-0.423s0.186-0.423 0.423-0.423z"></path>
<path fill="#d0d4d8" style="fill: var(--color24, #d0d4d8)" opacity="0.5" d="M13.46 24.042h5.079c0.237 0 0.423 0.186 0.423 0.423s-0.186 0.423-0.423 0.423h-5.079c-0.237 0-0.423-0.186-0.423-0.423s0.186-0.423 0.423-0.423z"></path>
<path fill="#d0d4d8" style="fill: var(--color24, #d0d4d8)" opacity="0.5" d="M13.46 12.191h2.54c0.237 0 0.423 0.186 0.423 0.423s-0.186 0.423-0.423 0.423h-2.54c-0.237 0-0.423-0.186-0.423-0.423s0.186-0.423 0.423-0.423z"></path>
<path fill="#d0d4d8" style="fill: var(--color24, #d0d4d8)" opacity="0.5" d="M13.46 13.884h2.54c0.237 0 0.423 0.186 0.423 0.423s-0.186 0.423-0.423 0.423h-2.54c-0.237 0-0.423-0.186-0.423-0.423s0.186-0.423 0.423-0.423z"></path>
</symbol>
<symbol id="iconskill-reactjs" viewBox="0 0 33 32">
<path fill="#61dafb" style="fill: var(--color25, #61dafb)" d="M16.233 17.567c0.87 0 1.576-0.702 1.576-1.567s-0.706-1.567-1.576-1.567c-0.87 0-1.576 0.702-1.576 1.567s0.706 1.567 1.576 1.567z"></path>
<path fill="#61dafb" style="fill: var(--color25, #61dafb)" d="M8.822 15.175c-0.357 0.321-0.475 0.601-0.475 0.825s0.117 0.504 0.475 0.825c0.357 0.321 0.906 0.636 1.634 0.912 1.45 0.551 3.493 0.903 5.777 0.903s4.327-0.353 5.777-0.903c0.727-0.276 1.276-0.591 1.634-0.912s0.475-0.601 0.475-0.825c0-0.224-0.117-0.504-0.475-0.825s-0.906-0.636-1.634-0.912c-1.451-0.551-3.493-0.903-5.777-0.903s-4.327 0.352-5.777 0.903c-0.727 0.276-1.276 0.591-1.634 0.912zM10.050 13.195c1.61-0.611 3.796-0.978 6.183-0.978s4.572 0.366 6.183 0.978c0.803 0.305 1.493 0.682 1.991 1.13s0.854 1.012 0.854 1.675-0.356 1.228-0.854 1.675c-0.499 0.448-1.188 0.825-1.991 1.13-1.61 0.611-3.796 0.978-6.183 0.978s-4.573-0.366-6.183-0.978c-0.803-0.305-1.493-0.682-1.991-1.13s-0.854-1.012-0.854-1.675 0.356-1.228 0.854-1.675c0.499-0.448 1.188-0.825 1.991-1.13z"></path>
<path fill="#61dafb" style="fill: var(--color25, #61dafb)" d="M13.251 9.207c-0.458-0.147-0.761-0.109-0.959 0.004s-0.383 0.356-0.483 0.824c-0.101 0.468-0.1 1.098 0.023 1.861 0.245 1.524 0.959 3.458 2.101 5.425s2.47 3.549 3.674 4.522c0.604 0.488 1.152 0.803 1.61 0.95s0.762 0.109 0.959-0.004c0.198-0.113 0.383-0.356 0.483-0.824s0.1-1.098-0.023-1.862c-0.245-1.524-0.959-3.458-2.101-5.425s-2.47-3.549-3.674-4.522c-0.604-0.488-1.152-0.803-1.61-0.95zM15.581 9.272c1.338 1.082 2.751 2.782 3.944 4.838s1.968 4.122 2.241 5.816c0.136 0.845 0.152 1.627 0.012 2.281s-0.455 1.241-1.029 1.571c-0.575 0.33-1.243 0.307-1.883 0.101s-1.313-0.611-1.98-1.151c-1.338-1.082-2.751-2.782-3.944-4.838s-1.968-4.122-2.241-5.816c-0.136-0.845-0.152-1.627-0.012-2.281s0.455-1.241 1.029-1.571c0.575-0.33 1.243-0.307 1.883-0.101s1.313 0.611 1.98 1.151z"></path>
<path fill="#61dafb" style="fill: var(--color25, #61dafb)" d="M20.658 10.035c-0.101-0.468-0.286-0.71-0.483-0.824s-0.502-0.151-0.959-0.004c-0.458 0.147-1.006 0.462-1.61 0.95-1.204 0.973-2.532 2.555-3.674 4.522s-1.856 3.901-2.101 5.425c-0.123 0.764-0.123 1.394-0.023 1.862s0.286 0.71 0.483 0.824c0.198 0.113 0.502 0.151 0.959 0.004s1.006-0.462 1.61-0.95c1.204-0.973 2.532-2.555 3.674-4.522s1.856-3.901 2.101-5.425c0.123-0.764 0.123-1.394 0.023-1.861zM21.766 12.074c-0.273 1.693-1.047 3.76-2.241 5.816s-2.606 3.756-3.944 4.838c-0.668 0.54-1.341 0.945-1.98 1.151s-1.308 0.229-1.883-0.101c-0.575-0.33-0.889-0.917-1.029-1.571s-0.124-1.436 0.012-2.281c0.273-1.693 1.047-3.76 2.241-5.816s2.606-3.756 3.944-4.838c0.668-0.54 1.341-0.945 1.98-1.151s1.308-0.229 1.883 0.101c0.575 0.33 0.889 0.917 1.029 1.571s0.124 1.436-0.012 2.281z"></path>
</symbol>
<symbol id="iconskill-redux" viewBox="0 0 32 32">
<path fill="#764abc" style="fill: var(--color26, #764abc)" d="M19.429 19.348c0.656-0.068 1.154-0.634 1.131-1.312s-0.588-1.222-1.267-1.222h-0.045c-0.701 0.023-1.244 0.611-1.222 1.312 0.023 0.339 0.158 0.634 0.362 0.837-0.769 1.516-1.946 2.624-3.71 3.552-1.199 0.634-2.443 0.86-3.688 0.701-1.018-0.136-1.81-0.588-2.308-1.335-0.724-1.109-0.792-2.308-0.181-3.507 0.43-0.86 1.108-1.493 1.538-1.81-0.090-0.294-0.226-0.792-0.294-1.154-3.28 2.376-2.941 5.588-1.946 7.104 0.746 1.131 2.262 1.833 3.936 1.833 0.452 0 0.905-0.045 1.357-0.158 2.896-0.566 5.090-2.285 6.334-4.841zM23.411 16.543c-1.719-2.014-4.253-3.122-7.149-3.122h-0.362c-0.204-0.407-0.633-0.679-1.108-0.679h-0.045c-0.701 0.023-1.244 0.611-1.222 1.312 0.023 0.679 0.588 1.222 1.267 1.222h0.045c0.498-0.023 0.928-0.339 1.108-0.769h0.407c1.719 0 3.348 0.498 4.819 1.471 1.131 0.747 1.946 1.719 2.398 2.896 0.385 0.95 0.362 1.878-0.045 2.67-0.633 1.199-1.697 1.855-3.099 1.855-0.905 0-1.765-0.272-2.217-0.475-0.249 0.226-0.701 0.588-1.018 0.814 0.973 0.452 1.968 0.701 2.918 0.701 2.172 0 3.778-1.199 4.389-2.398 0.656-1.312 0.611-3.575-1.086-5.498zM11.918 19.733c0.023 0.679 0.588 1.222 1.267 1.222h0.045c0.701-0.023 1.244-0.611 1.222-1.312-0.023-0.679-0.588-1.222-1.267-1.222h-0.045c-0.045 0-0.113 0-0.158 0.023-0.928-1.538-1.312-3.213-1.176-5.022 0.090-1.357 0.543-2.534 1.335-3.507 0.656-0.837 1.923-1.244 2.783-1.267 2.398-0.045 3.416 2.941 3.484 4.14 0.294 0.068 0.792 0.226 1.131 0.339-0.272-3.665-2.534-5.565-4.706-5.565-2.036 0-3.914 1.471-4.66 3.642-1.041 2.896-0.362 5.678 0.905 7.873-0.113 0.158-0.181 0.407-0.158 0.656v-0z"></path>
</symbol>
<symbol id="iconskill-sass" viewBox="0 0 32 32">
<path fill="#cd6799" style="fill: var(--color27, #cd6799)" d="M22.419 16.998c-0.62 0.003-1.159 0.153-1.611 0.373-0.166-0.328-0.331-0.62-0.36-0.834-0.032-0.25-0.071-0.403-0.032-0.701s0.214-0.724 0.211-0.757-0.039-0.185-0.396-0.188c-0.357-0.003-0.666 0.068-0.701 0.162s-0.104 0.308-0.149 0.529c-0.062 0.325-0.714 1.484-1.088 2.091-0.12-0.237-0.224-0.445-0.247-0.61-0.032-0.25-0.071-0.403-0.032-0.701s0.214-0.724 0.211-0.757c-0.003-0.032-0.039-0.185-0.396-0.188s-0.666 0.068-0.701 0.162c-0.036 0.094-0.075 0.315-0.149 0.529s-0.942 2.15-1.169 2.65c-0.117 0.256-0.218 0.461-0.289 0.601 0 0-0.003 0.010-0.013 0.026-0.062 0.12-0.097 0.185-0.097 0.185s0 0 0 0.003c-0.049 0.088-0.101 0.169-0.127 0.169-0.020 0-0.055-0.234 0.006-0.552 0.13-0.672 0.438-1.718 0.435-1.753 0-0.020 0.058-0.201-0.201-0.296-0.253-0.094-0.344 0.062-0.367 0.062s-0.039 0.055-0.039 0.055 0.283-1.175-0.539-1.175c-0.513 0-1.221 0.562-1.572 1.068-0.221 0.12-0.692 0.377-1.195 0.653-0.192 0.107-0.39 0.214-0.575 0.315-0.013-0.013-0.026-0.029-0.039-0.042-0.994-1.062-2.832-1.812-2.754-3.237 0.029-0.52 0.208-1.883 3.53-3.539 2.734-1.348 4.91-0.974 5.286-0.146 0.539 1.182-1.166 3.377-3.991 3.695-1.078 0.12-1.643-0.296-1.786-0.451-0.149-0.162-0.172-0.172-0.227-0.14-0.091 0.049-0.032 0.195 0 0.279 0.084 0.221 0.432 0.61 1.020 0.802 0.52 0.169 1.783 0.263 3.312-0.328 1.711-0.662 3.049-2.504 2.656-4.046-0.393-1.565-2.991-2.081-5.449-1.208-1.461 0.52-3.046 1.338-4.186 2.403-1.354 1.266-1.568 2.367-1.481 2.828 0.315 1.637 2.572 2.702 3.474 3.491-0.046 0.026-0.088 0.049-0.123 0.068-0.451 0.224-2.172 1.124-2.601 2.075-0.487 1.078 0.078 1.851 0.451 1.955 1.159 0.321 2.351-0.257 2.991-1.211s0.562-2.195 0.266-2.763c-0.003-0.006-0.006-0.013-0.013-0.020 0.117-0.068 0.237-0.14 0.354-0.208 0.231-0.136 0.458-0.263 0.653-0.367-0.11 0.302-0.192 0.662-0.231 1.182-0.049 0.61 0.201 1.403 0.529 1.715 0.146 0.136 0.318 0.14 0.429 0.14 0.383 0 0.555-0.318 0.747-0.695 0.234-0.461 0.445-0.997 0.445-0.997s-0.263 1.448 0.451 1.448c0.26 0 0.523-0.338 0.64-0.51 0 0.003 0 0.003 0 0.003s0.007-0.010 0.020-0.032c0.026-0.042 0.042-0.068 0.042-0.068s0-0.003 0-0.006c0.104-0.182 0.338-0.594 0.685-1.279 0.448-0.883 0.88-1.987 0.88-1.987s0.039 0.27 0.172 0.718c0.078 0.263 0.24 0.552 0.37 0.831-0.104 0.146-0.169 0.227-0.169 0.227s0 0 0.003 0.003c-0.084 0.11-0.175 0.23-0.276 0.347-0.354 0.422-0.776 0.906-0.834 1.046-0.068 0.166-0.052 0.286 0.078 0.383 0.094 0.072 0.263 0.081 0.435 0.072 0.318-0.023 0.542-0.101 0.653-0.149 0.172-0.062 0.373-0.156 0.562-0.296 0.347-0.256 0.558-0.623 0.539-1.107-0.010-0.266-0.097-0.533-0.205-0.783 0.032-0.046 0.062-0.091 0.094-0.136 0.549-0.802 0.974-1.682 0.974-1.682s0.039 0.27 0.172 0.718c0.065 0.227 0.198 0.474 0.315 0.714-0.516 0.419-0.834 0.906-0.948 1.224-0.205 0.591-0.046 0.857 0.256 0.919 0.136 0.029 0.331-0.036 0.474-0.097 0.182-0.058 0.396-0.159 0.601-0.308 0.348-0.256 0.682-0.614 0.662-1.098-0.010-0.221-0.068-0.438-0.149-0.649 0.438-0.182 1.003-0.282 1.724-0.198 1.546 0.182 1.851 1.146 1.792 1.552s-0.383 0.627-0.49 0.695c-0.107 0.068-0.143 0.091-0.133 0.14 0.013 0.071 0.065 0.068 0.156 0.055 0.127-0.023 0.812-0.328 0.841-1.075 0.049-0.955-0.861-1.997-2.468-1.987zM10.496 21.018c-0.513 0.558-1.227 0.77-1.536 0.591-0.331-0.192-0.201-1.016 0.429-1.607 0.383-0.36 0.877-0.695 1.205-0.899 0.075-0.045 0.185-0.11 0.318-0.192 0.023-0.013 0.036-0.020 0.036-0.020 0.026-0.016 0.052-0.032 0.078-0.049 0.231 0.844 0.010 1.588-0.529 2.176zM14.23 18.479c-0.179 0.435-0.552 1.549-0.779 1.487-0.195-0.052-0.315-0.896-0.039-1.731 0.14-0.419 0.435-0.919 0.607-1.114 0.279-0.312 0.588-0.416 0.662-0.289 0.094 0.166-0.341 1.374-0.451 1.646zM17.311 19.953c-0.075 0.039-0.146 0.065-0.179 0.046-0.023-0.013 0.032-0.065 0.032-0.065s0.386-0.416 0.539-0.604c0.088-0.11 0.192-0.24 0.302-0.386 0 0.013 0 0.029 0 0.042 0 0.497-0.481 0.831-0.695 0.968zM19.688 19.411c-0.055-0.039-0.045-0.169 0.14-0.575 0.071-0.159 0.24-0.425 0.529-0.682 0.032 0.104 0.055 0.205 0.052 0.299-0.003 0.627-0.451 0.86-0.721 0.958z"></path>
</symbol>
<symbol id="iconskill-typescript" viewBox="0 0 32 32">
<path fill="#017acb" style="fill: var(--color28, #017acb)" d="M7.111 7.111h17.778v17.778h-17.778v-17.778z"></path>
<path fill="#fff" style="fill: var(--color4, #fff)" d="M15.647 13.694h0.853v1.472h-2.306v6.55l-0.061 0.017c-0.083 0.022-1.181 0.022-1.417-0.003l-0.189-0.017v-6.547h-2.306v-1.472l0.731-0.008c0.4-0.006 1.428-0.006 2.283 0s1.939 0.008 2.411 0.008zM22.156 21.022c-0.339 0.358-0.703 0.558-1.308 0.722-0.264 0.072-0.308 0.075-0.903 0.072s-0.642-0.003-0.93-0.078c-0.747-0.192-1.35-0.567-1.761-1.097-0.117-0.15-0.308-0.461-0.308-0.5 0-0.011 0.028-0.036 0.064-0.053s0.111-0.064 0.172-0.1c0.061-0.036 0.172-0.103 0.247-0.142s0.292-0.167 0.48-0.28c0.189-0.114 0.361-0.206 0.381-0.206s0.056 0.039 0.083 0.086c0.167 0.281 0.556 0.639 0.831 0.761 0.169 0.072 0.544 0.153 0.725 0.153 0.167 0 0.472-0.072 0.636-0.147 0.175-0.081 0.264-0.161 0.369-0.322 0.072-0.114 0.081-0.144 0.078-0.361 0-0.2-0.011-0.256-0.067-0.347-0.156-0.256-0.367-0.389-1.222-0.767-0.883-0.392-1.28-0.625-1.603-0.939-0.239-0.233-0.286-0.297-0.436-0.589-0.194-0.375-0.219-0.497-0.222-1.056-0.003-0.392 0.006-0.519 0.047-0.653 0.058-0.2 0.247-0.586 0.333-0.683 0.178-0.208 0.242-0.272 0.367-0.375 0.378-0.311 0.967-0.517 1.531-0.536 0.064 0 0.275 0.011 0.472 0.025 0.567 0.047 0.953 0.186 1.325 0.483 0.28 0.222 0.706 0.744 0.664 0.814-0.028 0.042-1.136 0.781-1.208 0.803-0.044 0.014-0.075-0.003-0.136-0.075-0.378-0.453-0.531-0.55-0.897-0.572-0.261-0.017-0.4 0.014-0.575 0.131-0.183 0.122-0.272 0.308-0.272 0.567 0.003 0.378 0.147 0.556 0.681 0.82 0.344 0.169 0.639 0.308 0.661 0.308 0.033 0 0.747 0.356 0.933 0.467 0.867 0.508 1.219 1.031 1.311 1.931 0.067 0.678-0.125 1.297-0.542 1.736z"></path>
</symbol>
<symbol id="iconskill-vscode" viewBox="0 0 32 32">
<path fill="#2489ca" style="fill: var(--color29, #2489ca)" d="M7.28 13.339c0 0-0.433-0.312 0.087-0.729l1.211-1.082c0 0 0.346-0.364 0.713-0.047l11.171 8.458v4.056c0 0-0.005 0.637-0.823 0.567l-12.358-11.222z"></path>
<path fill="#1070b3" style="fill: var(--color30, #1070b3)" d="M10.16 15.954l-2.88 2.618c0 0-0.296 0.22 0 0.613l1.337 1.216c0 0 0.318 0.341 0.787-0.047l3.053-2.315-2.297-2.086z"></path>
<path fill="#0877b9" style="fill: var(--color31, #0877b9)" d="M15.215 15.975l5.281-4.032-0.034-4.034c0 0-0.226-0.88-0.978-0.422l-7.027 6.396 2.759 2.093z"></path>
<path fill="#3c99d4" style="fill: var(--color32, #3c99d4)" d="M19.639 24.567c0.307 0.314 0.678 0.211 0.678 0.211l4.115-2.028c0.527-0.359 0.453-0.805 0.453-0.805v-12.11c0-0.532-0.545-0.716-0.545-0.716l-3.567-1.719c-0.779-0.482-1.29 0.087-1.29 0.087s0.657-0.473 0.978 0.422v16.012c0 0.11-0.023 0.218-0.070 0.316-0.094 0.189-0.298 0.366-0.787 0.292l0.034 0.038z"></path>
</symbol>
</defs>
</svg>
